<?xml version="1.0" encoding="utf-8"?>
<!-- Generator: Adobe Illustrator 27.5.0, SVG Export Plug-In . SVG Version: 6.00 Build 0)  -->
<svg version="1.1" xmlns="http://www.w3.org/2000/svg" xmlns:xlink="http://www.w3.org/1999/xlink" x="0px" y="0px"
	 viewBox="0 0 500 500" style="enable-background:new 0 0 500 500;" xml:space="preserve">
<g id="Floor">
	<ellipse id="Floor_8_" style="fill:#F5F5F5;" cx="249.048" cy="363.881" rx="221.298" ry="114.924"/>
</g>
<g id="Shadow">
	<path id="Shadow_12_" style="fill:#EBEBEB;" d="M439.073,400.164c-17.996,9.71-47.172,9.71-65.168,0
		c-17.996-9.707-17.996-25.448,0-35.158c17.996-9.707,47.172-9.707,65.168,0C457.069,374.716,457.069,390.457,439.073,400.164z"/>
</g>
<g id="Lines_1_">
	<g id="Lines">
		<g id="XMLID_1198_">
			<g id="XMLID_599_" style="opacity:0.8;">
				<path id="XMLID_1281_" style="fill:#27DEBF;" d="M73.586,410.104c-1.573,0-3.146-0.346-4.344-1.037l-14.853-8.576
					c-1.255-0.724-1.945-1.717-1.945-2.795c0-1.079,0.69-2.072,1.945-2.797l91.698-52.881c2.436-1.407,6.251-1.407,8.687,0.001
					l14.854,8.575c1.255,0.725,1.945,1.718,1.945,2.797c0,1.078-0.69,2.071-1.945,2.795L77.93,409.068
					C76.732,409.758,75.159,410.104,73.586,410.104z M150.431,341.966c-1.392,0-2.783,0.307-3.843,0.918L54.89,395.765
					c-0.933,0.538-1.445,1.224-1.445,1.931c0,0.706,0.514,1.392,1.445,1.93l14.853,8.576c2.121,1.224,5.57,1.223,7.688,0v-0.001
					l91.698-52.881c0.932-0.537,1.445-1.223,1.445-1.929c0-0.707-0.513-1.393-1.445-1.932l-14.854-8.575
					C153.215,342.273,151.823,341.966,150.431,341.966z"/>
			</g>
		</g>
		<g id="XMLID_1199_">
			<g id="XMLID_1379_">
				<path id="XMLID_1231_" style="fill:#27DEBF;" d="M181.152,414.596c-1.563,0-3.126-0.352-4.344-1.056l-53.508-30.892
					c-0.239-0.138-0.321-0.443-0.183-0.683c0.138-0.239,0.444-0.32,0.683-0.183l53.508,30.892c2.119,1.223,5.567,1.224,7.686,0
					l172.3-99.472c0.932-0.538,1.445-1.224,1.445-1.93c0-0.707-0.513-1.393-1.445-1.932l-45.152-26.068
					c-0.239-0.138-0.321-0.443-0.183-0.683c0.138-0.239,0.444-0.321,0.683-0.183l45.152,26.068c1.255,0.725,1.945,1.718,1.945,2.797
					c0,1.078-0.69,2.071-1.945,2.795l-172.3,99.472C184.277,414.244,182.715,414.596,181.152,414.596z"/>
			</g>
			<g id="XMLID_596_">
				<path id="XMLID_5_" style="fill:#455A64;" d="M300.198,280.234c2.121,1.224,5.559,1.224,7.68,0c2.121-1.224,2.121-3.21,0-4.434
					c-2.121-1.224-5.559-1.224-7.68,0C298.077,277.025,298.077,279.01,300.198,280.234z"/>
			</g>
			<g id="XMLID_598_">
				<path id="XMLID_1210_" style="fill:#455A64;" d="M304.038,284.67c-2.824,0-5.648-0.621-7.798-1.862l0,0
					c-2.178-1.257-3.377-2.959-3.377-4.791c0-1.832,1.199-3.533,3.376-4.79c4.3-2.482,11.298-2.482,15.596,0
					c2.178,1.257,3.377,2.959,3.377,4.791s-1.199,3.533-3.376,4.79C309.686,284.049,306.862,284.67,304.038,284.67z M296.74,281.943
					c4.023,2.322,10.57,2.322,14.596,0c1.855-1.071,2.876-2.465,2.876-3.925s-1.021-2.854-2.877-3.926
					c-4.023-2.322-10.57-2.322-14.596,0c-1.855,1.071-2.876,2.465-2.876,3.925C293.863,279.477,294.885,280.872,296.74,281.943
					L296.74,281.943z"/>
			</g>
			<g id="XMLID_603_">
				<path id="XMLID_6_" style="fill:#455A64;" d="M119.712,384.433c2.121,1.224,5.559,1.224,7.68,0s2.121-3.21,0-4.434
					c-2.121-1.224-5.559-1.224-7.68,0C117.591,381.223,117.591,383.208,119.712,384.433z"/>
			</g>
		</g>
		<g id="XMLID_601_">
			<path id="XMLID_1209_" style="fill:#27DEBF;" d="M304.038,278.518c-0.276,0-0.5-0.224-0.5-0.5V111.862c0-0.276,0.224-0.5,0.5-0.5
				s0.5,0.224,0.5,0.5v166.156C304.538,278.294,304.315,278.518,304.038,278.518z"/>
		</g>
	</g>
</g>
<g id="Cloud_1_">
	<g id="Cloud">
		<path id="XMLID_610_" style="fill:#27DEBF;" d="M354.322,62.298l-12.974-7.492l-0.007,0.013c-1.738-1.157-4.063-1.147-6.627,0.334
			l-0.931,0.537c0.255-1.854,0.39-3.695,0.39-5.502c0-2.694-0.301-5.119-0.853-7.254l6.721-1.647l-12.865-7.431l0.006,0.014
			c-3.537-2.036-8.144-1.848-13.187,1.063c-5.169,2.985-9.883,8.301-13.453,14.624c-0.101-3.599-0.642-6.792-1.543-9.545
			l5.853-2.242l-12.435-7.154l0.004,0.014c-4.549-3.016-10.643-2.955-17.348,0.915c-14.08,8.129-25.493,29.937-25.493,48.71
			c0,2.219,0.165,4.291,0.469,6.216l-1.757,1.014c-8.958,5.172-16.219,19.046-16.219,30.989v0c0,6.595,2.217,11.296,5.708,13.318
			l-0.008,0.003l13.018,7.516l2.147-10.998l18.943-10.937l62.833-36.277c5.332-3.078,9.656-11.294,9.725-18.421l7.55,4.053
			L354.322,62.298z"/>
		<path id="XMLID_8_" style="opacity:0.1;fill:#FFFFFF;" d="M354.322,62.298l-12.974-7.492l-0.007,0.013
			c-1.738-1.157-4.063-1.147-6.627,0.334l-0.931,0.537c0.255-1.854,0.39-3.695,0.39-5.502c0-2.694-0.301-5.119-0.853-7.254
			l6.721-1.647l-12.865-7.431l0.006,0.014c-3.537-2.036-8.144-1.848-13.187,1.063c-5.169,2.985-9.883,8.301-13.453,14.624
			c-0.101-3.599-0.642-6.792-1.543-9.545l5.853-2.242l-12.435-7.154l0.004,0.014c-4.549-3.016-10.643-2.955-17.348,0.915
			c-14.08,8.129-25.493,29.937-25.493,48.71c0,2.219,0.165,4.291,0.469,6.216l-1.757,1.014
			c-8.958,5.172-16.219,19.046-16.219,30.989v0c0,6.595,2.217,11.296,5.708,13.318l-0.008,0.003l13.018,7.516l2.147-10.998
			l18.943-10.937l62.833-36.277c5.332-3.078,9.656-11.294,9.725-18.421l7.55,4.053L354.322,62.298z"/>
		<path id="XMLID_1329_" style="fill:#27DEBF;" d="M327.177,33.857l0.006,0.014c-3.537-2.036-8.144-1.848-13.187,1.063
			c-2.33,1.345-4.565,3.167-6.647,5.338l16.594,9.635l9.872-4.481c-0.133-0.865-0.29-1.705-0.493-2.492l6.721-1.647L327.177,33.857z
			"/>
		<path id="XMLID_1328_" style="fill:#27DEBF;" d="M299.581,42.074c-0.174-0.711-0.366-1.4-0.582-2.06l4.95-1.896l0.585-0.53
			l-12.116-6.97l0.004,0.014c-4.549-3.016-10.643-2.955-17.348,0.915c-6.389,3.689-12.225,10.199-16.699,17.961l20.155,11.636
			L299.581,42.074z"/>
		<path id="XMLID_1327_" style="fill:#27DEBF;" d="M250.048,86.473l-5.338,3.618c-4.532,3.979-8.343,10.068-10.559,16.598
			l15.183,8.766l13.693-21.486L250.048,86.473z"/>
		<path id="XMLID_11_" style="opacity:0.4;fill:#FFFFFF;" d="M327.177,33.857l0.006,0.014c-3.537-2.036-8.144-1.848-13.187,1.063
			c-2.33,1.345-4.565,3.167-6.647,5.338l16.594,9.635l9.872-4.481c-0.133-0.865-0.29-1.705-0.493-2.492l6.721-1.647L327.177,33.857z
			"/>
		<path id="XMLID_10_" style="opacity:0.4;fill:#FFFFFF;" d="M299.581,42.074c-0.174-0.711-0.366-1.4-0.582-2.06l4.95-1.896
			l0.585-0.53l-12.116-6.97l0.004,0.014c-4.549-3.016-10.643-2.955-17.348,0.915c-6.389,3.689-12.225,10.199-16.699,17.961
			l20.155,11.636L299.581,42.074z"/>
		<path id="XMLID_9_" style="opacity:0.4;fill:#FFFFFF;" d="M250.048,86.473l-5.338,3.618c-4.532,3.979-8.343,10.068-10.559,16.598
			l15.183,8.766l13.693-21.486L250.048,86.473z"/>
		<path id="XMLID_1207_" style="fill:#27DEBF;" d="M347.693,62.648l-0.931,0.537c0.254-1.853,0.39-3.695,0.39-5.502
			c0-14.859-9.034-21.689-20.178-15.254c-5.169,2.985-9.883,8.301-13.453,14.624c-0.504-17.891-11.71-25.956-25.47-18.012
			c-14.08,8.129-25.494,29.937-25.494,48.71c0,2.219,0.165,4.291,0.469,6.216l-1.757,1.014
			c-8.958,5.172-16.219,19.046-16.219,30.989v0c0,11.943,7.262,17.694,16.219,12.522l23.589-13.619l0,0l62.833-36.277
			c5.375-3.103,9.731-11.428,9.731-18.594v0C357.424,62.839,353.067,59.545,347.693,62.648z"/>
		<path id="XMLID_1_" style="opacity:0.6;fill:#FFFFFF;" d="M347.693,62.648l-0.931,0.537c0.254-1.853,0.39-3.695,0.39-5.502
			c0-14.859-9.034-21.689-20.178-15.254c-5.169,2.985-9.883,8.301-13.453,14.624c-0.504-17.891-11.71-25.956-25.47-18.012
			c-14.08,8.129-25.494,29.937-25.494,48.71c0,2.219,0.165,4.291,0.469,6.216l-1.757,1.014
			c-8.958,5.172-16.219,19.046-16.219,30.989v0c0,11.943,7.262,17.694,16.219,12.522l23.589-13.619l0,0l62.833-36.277
			c5.375-3.103,9.731-11.428,9.731-18.594v0C357.424,62.839,353.067,59.545,347.693,62.648z"/>
	</g>
</g>
<g id="Device_1_">
	<g id="Device">
		<path id="XMLID_1402_" style="fill:#455A64;" d="M156.057,138.658c-0.198-1.451-1.363-1.978-2.762-1.165L76.44,181.859
			c-1.539,0.894-2.792,3.063-2.792,4.843v169.592c0,1.641,1.062,2.389,2.44,1.788c-1.546,0.711-3.803,0.652-5.239-0.176
			l-3.201-1.843c-1.546-0.887-2.799-3.055-2.799-4.843V181.635c0-1.788,1.253-3.957,2.799-4.843l76.848-44.373
			c1.539-0.894,4.045-0.894,5.59,0l3.209,1.843C154.709,135.083,155.881,136.973,156.057,138.658z"/>
		<path id="XMLID_1399_" style="fill:#37474F;" d="M153.295,137.493L76.44,181.859c-1.539,0.894-2.792,3.063-2.792,4.843v169.592
			c0,1.78,1.253,2.506,2.792,1.612l76.855-44.366c1.539-0.894,2.792-3.063,2.792-4.843V139.105
			C156.087,137.325,154.834,136.599,153.295,137.493z M152.064,292.727c0,1.524-1.07,2.495-2.396,3.257l-69.879,40.343
			c-1.319,0.762-2.396,0.146-2.396-1.385v-132.04c0-1.531,1.077-3.385,2.396-4.154l69.879-40.336
			c1.326-0.769,2.396-0.146,2.396,1.378V292.727z"/>
		<path id="XMLID_1398_" style="fill:#263238;" d="M76.088,358.082c-1.546,0.711-3.803,0.652-5.239-0.176l-3.201-1.843
			c-1.546-0.894-2.799-3.055-2.799-4.843V181.635c0-0.894,0.315-1.883,0.821-2.762l8.799,5.074
			c-0.506,0.879-0.821,1.868-0.821,2.755v169.592C73.649,357.935,74.711,358.683,76.088,358.082z"/>
		<path id="XMLID_1397_" d="M114.868,163.414c1.035-0.597,1.874-0.113,1.874,1.082s-0.839,2.648-1.874,3.245
			s-1.874,0.113-1.874-1.082C112.994,165.464,113.833,164.011,114.868,163.414z"/>
		<path style="fill:#E6E6E6;" d="M113.56,331.787c-0.506,0-0.978-0.121-1.398-0.363c-0.995-0.574-1.543-1.742-1.543-3.289
			c0-2.968,2.091-6.591,4.662-8.075c1.341-0.774,2.626-0.883,3.62-0.309c0.995,0.574,1.542,1.743,1.542,3.29
			c0,2.969-2.092,6.591-4.663,8.075C115.008,331.561,114.252,331.787,113.56,331.787z M117.501,320.388
			c-0.516,0-1.101,0.18-1.719,0.537l0,0c-2.295,1.325-4.162,4.559-4.162,7.209c0,1.175,0.37,2.036,1.043,2.424
			c0.672,0.388,1.603,0.278,2.62-0.31c2.295-1.325,4.163-4.559,4.163-7.209c0-1.175-0.37-2.035-1.042-2.423
			C118.138,320.463,117.834,320.388,117.501,320.388z"/>
		<path id="XMLID_1394_" d="M107.635,174.811l14.466-8.352c0.863-0.498,1.563-0.144,1.563,0.791c0,0.935-0.7,2.097-1.563,2.595
			l-14.467,8.352c-0.863,0.498-1.563,0.144-1.563-0.791C106.072,176.471,106.772,175.309,107.635,174.811z"/>
		<path id="XMLID_1390_" style="fill:#27DEBF;" d="M152.064,292.727c0,1.524-1.07,2.495-2.396,3.257l-69.879,40.343
			c-1.319,0.762-2.396,0.146-2.396-1.385v-132.04c0-1.531,1.077-3.385,2.396-4.154l69.879-40.336
			c1.326-0.769,2.396-0.146,2.396,1.378V292.727z"/>
		<g id="XMLID_2990_">
			<g id="XMLID_4971_">
				<path id="XMLID_4993_" style="fill:#FFFFFF;" d="M142.326,240.724l-3.797-1.804c5.577-18.204-0.083-24.204-9.917-25.038
					c3.872,2.381,5.842,12.246,2.637,21.581l-3.797-1.804c-0.744-0.353-1.966,0.967-1.986,2.146l-0.3,17.568
					c-0.014,0.805,0.578,1.086,1.273,0.605l15.174-10.503C142.632,242.77,143.071,241.078,142.326,240.724z"/>
				<path id="XMLID_4977_" style="opacity:0.8;fill:#FFFFFF;" d="M130.738,225.844c-0.013-5.665-1.725-10.369-4.241-11.916
					c0,0-10.36,0.895-20.315,15.5C106.182,229.428,120.355,217.73,130.738,225.844z"/>
			</g>
			<g id="XMLID_4916_">
				<path id="XMLID_2993_" style="fill:#FFFFFF;" d="M88.575,254.012l3.797,1.804c-5.577,18.203,0.083,24.204,9.917,25.038
					c-3.872-2.381-5.842-12.246-2.637-21.581l3.797,1.804c0.744,0.353,1.966-0.967,1.986-2.147l0.3-17.568
					c0.014-0.805-0.578-1.086-1.273-0.605l-15.174,10.503C88.27,251.966,87.831,253.659,88.575,254.012z"/>
				<path id="XMLID_4969_" style="opacity:0.8;fill:#FFFFFF;" d="M100.163,268.892c0.013,5.665,1.725,10.369,4.241,11.916
					c0,0,10.36-0.895,20.316-15.5C124.719,265.308,110.546,277.007,100.163,268.892z"/>
			</g>
		</g>
	</g>
</g>
<g id="Icons_1_">
	<g id="Video">
		<path id="XMLID_1333_" style="fill:#27DEBF;" d="M213.605,226.155c0-1.621-1.138-3.592-2.542-4.402l-2.069-1.195
			c-1.404-0.811-3.68-0.811-5.083,0l-16.375,9.454c-0.703,0.406-1.339,1.104-1.8,1.902c-0.458,0.795-0.742,1.691-0.742,2.5v18.909
			c0,1.621,1.138,3.592,2.542,4.402l2.07,1.195c0.167,0.097,0.348,0.18,0.538,0.253c0.069,0.027,0.144,0.046,0.216,0.07
			c0.122,0.04,0.244,0.081,0.371,0.113c0.098,0.024,0.198,0.041,0.299,0.06c0.105,0.02,0.21,0.04,0.318,0.054
			c0.121,0.016,0.242,0.025,0.364,0.033c0.087,0.006,0.174,0.012,0.261,0.014c0.141,0.004,0.28,0.002,0.421-0.004
			c0.066-0.003,0.131-0.006,0.197-0.011c0.157-0.011,0.312-0.028,0.466-0.051c0.044-0.007,0.086-0.014,0.129-0.022
			c0.169-0.029,0.334-0.064,0.496-0.109c0.022-0.006,0.043-0.013,0.065-0.02c0.338-0.097,0.661-0.218,0.943-0.381l16.375-9.454
			c1.404-0.811,2.542-2.781,2.542-4.402L213.605,226.155z"/>
		<path id="XMLID_1193_" style="fill:#27DEBF;" d="M213.606,226.138v18.907c0,1.626-1.135,3.592-2.543,4.405l-16.373,9.453
			c-0.189,0.104-0.397,0.199-0.615,0.265h-0.009c-0.057,0.019-0.113,0.038-0.17,0.047c-0.057,0.01-0.104,0.019-0.161,0.019
			c-0.926,0.104-1.588-0.567-1.588-1.796v-18.907c0-0.813,0.284-1.711,0.747-2.505c0.463-0.794,1.087-1.494,1.796-1.9l16.373-9.453
			c1.276-0.737,2.326-0.265,2.505,1.04c-0.013-0.132-0.036-0.266-0.064-0.401C213.564,225.592,213.606,225.871,213.606,226.138z"/>
		<path id="XMLID_1185_" style="fill:#FFFFFF;" d="M195.195,237.823v16.791c0,0.261,0.183,0.367,0.409,0.236l14.542-8.395
			c0.226-0.131,0.409-0.448,0.409-0.709v-16.791c0-0.261-0.183-0.367-0.409-0.236l-14.542,8.396
			C195.379,237.245,195.195,237.562,195.195,237.823z M209.202,245.91l-12.652,7.303c-0.226,0.13-0.409,0.025-0.409-0.236v-14.608
			c0-0.261,0.183-0.579,0.409-0.709l12.652-7.304c0.226-0.131,0.409-0.025,0.409,0.236v14.609
			C209.611,245.462,209.428,245.779,209.202,245.91z"/>
		<path id="XMLID_1184_" style="opacity:0.4;fill:#FFFFFF;" d="M213.57,225.724c-0.182-1.302-1.236-1.775-2.505-1.037l-16.38,9.454
			c-0.705,0.406-1.335,1.103-1.791,1.899l-7.157-4.13c0.464-0.796,1.095-1.493,1.8-1.899l16.371-9.454
			c1.41-0.813,3.682-0.813,5.084,0l2.073,1.194C212.343,222.49,213.404,224.198,213.57,225.724z"/>
		<path id="XMLID_1179_" style="opacity:0.1;" d="M194.23,259.13c-0.05,0.025-0.1,0.042-0.158,0.058
			c-0.124,0.042-0.249,0.083-0.373,0.116c-0.315,0.099-0.655,0.166-0.995,0.199c-0.008-0.008-0.025,0-0.05,0
			c-0.166,0.017-0.332,0.025-0.506,0.025c-0.921,0-1.841-0.199-2.546-0.605l-2.065-1.194c-1.402-0.813-2.546-2.787-2.546-4.404
			v-18.909c0-0.506,0.116-1.045,0.307-1.576c0.083-0.216,0.174-0.423,0.274-0.622c0.058-0.108,0.108-0.207,0.166-0.307l7.157,4.13
			c-0.464,0.796-0.746,1.692-0.746,2.505v18.909c0,1.228,0.655,1.899,1.584,1.8c0.058-0.008,0.108-0.017,0.158-0.025
			C194.006,259.205,194.114,259.172,194.23,259.13z"/>
		<path id="XMLID_1178_" style="fill:#FFFFFF;" d="M200.257,240.832v5.816c0,0.435,0.231,0.521,0.516,0.192l5.37-6.2
			c0.285-0.329,0.163-0.596-0.272-0.596l-4.826,0C200.61,240.044,200.257,240.397,200.257,240.832z"/>
	</g>
	<g id="Messages">
		<path id="XMLID_1164_" style="fill:#27DEBF;" d="M213.605,106.394c0-1.621-1.138-3.592-2.542-4.402l-2.069-1.195
			c-1.404-0.811-3.68-0.811-5.083,0l-16.375,9.454c-0.703,0.406-1.339,1.104-1.8,1.902c-0.458,0.795-0.742,1.691-0.742,2.5v18.909
			c0,1.621,1.138,3.592,2.542,4.402l2.07,1.195c0.167,0.097,0.348,0.18,0.538,0.253c0.069,0.027,0.144,0.046,0.216,0.07
			c0.122,0.04,0.244,0.081,0.371,0.113c0.098,0.024,0.198,0.041,0.299,0.06c0.105,0.02,0.21,0.04,0.318,0.054
			c0.121,0.016,0.242,0.025,0.364,0.033c0.087,0.006,0.174,0.012,0.261,0.014c0.141,0.004,0.28,0.002,0.421-0.004
			c0.066-0.003,0.131-0.006,0.197-0.011c0.157-0.011,0.312-0.028,0.466-0.051c0.044-0.007,0.086-0.015,0.129-0.022
			c0.169-0.029,0.334-0.065,0.496-0.109c0.022-0.006,0.043-0.014,0.065-0.02c0.338-0.097,0.661-0.218,0.943-0.381l16.375-9.454
			c1.404-0.811,2.542-2.781,2.542-4.402L213.605,106.394z"/>
		<path id="XMLID_1087_" style="opacity:0.4;fill:#FFFFFF;" d="M213.57,105.965c-0.182-1.302-1.236-1.775-2.505-1.037l-16.38,9.454
			c-0.705,0.406-1.335,1.103-1.791,1.899l-7.157-4.13c0.464-0.796,1.095-1.493,1.8-1.899l16.371-9.454
			c1.41-0.813,3.682-0.813,5.084,0l2.073,1.194C212.343,102.73,213.404,104.439,213.57,105.965z"/>
		<path id="XMLID_1110_" style="fill:#27DEBF;" d="M213.606,106.377v18.907c0,1.626-1.135,3.592-2.543,4.405l-16.373,9.454
			c-0.189,0.104-0.397,0.199-0.615,0.265h-0.009c-0.057,0.019-0.113,0.038-0.17,0.047c-0.057,0.01-0.104,0.019-0.161,0.019
			c-0.926,0.104-1.588-0.567-1.588-1.796V118.77c0-0.813,0.284-1.711,0.747-2.505c0.463-0.794,1.087-1.494,1.796-1.9l16.373-9.453
			c1.276-0.737,2.326-0.265,2.505,1.04c-0.013-0.132-0.036-0.266-0.064-0.401C213.564,105.831,213.606,106.11,213.606,106.377z"/>
		<g id="XMLID_1100_">
			<path id="XMLID_1109_" style="fill:#FFFFFF;" d="M210.502,112.019c-0.125-0.068-0.295-0.058-0.483,0.051l-14.286,8.285
				c-0.179,0.104-0.338,0.279-0.461,0.479l8.305,2.099L210.502,112.019z"/>
			<path id="XMLID_1108_" style="fill:#FFFFFF;" d="M203.808,124.524l-8.549-3.672c-0.134,0.224-0.22,0.478-0.22,0.708l0,9.692
				c0,0.443,0.311,0.623,0.695,0.4l14.286-8.284c0.384-0.222,0.695-0.762,0.695-1.206v-9.692c0-0.215-0.076-0.365-0.195-0.44
				L203.808,124.524z"/>
		</g>
		<path id="XMLID_1096_" style="opacity:0.1;" d="M194.23,139.369c-0.05,0.025-0.1,0.042-0.158,0.058
			c-0.124,0.042-0.249,0.083-0.373,0.116c-0.315,0.1-0.655,0.166-0.995,0.199c-0.008-0.008-0.025,0-0.05,0
			c-0.166,0.017-0.332,0.025-0.506,0.025c-0.921,0-1.841-0.199-2.546-0.605l-2.065-1.194c-1.402-0.813-2.546-2.787-2.546-4.404
			v-18.909c0-0.506,0.116-1.045,0.307-1.576c0.083-0.216,0.174-0.423,0.274-0.622c0.058-0.108,0.108-0.207,0.166-0.307l7.157,4.13
			c-0.464,0.796-0.746,1.692-0.746,2.505v18.909c0,1.227,0.655,1.899,1.584,1.8c0.058-0.008,0.108-0.016,0.158-0.025
			C194.006,139.444,194.114,139.411,194.23,139.369z"/>
	</g>
	<g id="Music">
		<path id="XMLID_1090_" style="fill:#27DEBF;" d="M213.605,146.313c0-1.621-1.138-3.592-2.542-4.402l-2.069-1.195
			c-1.404-0.811-3.68-0.811-5.083,0l-16.375,9.454c-0.703,0.406-1.339,1.104-1.8,1.902c-0.458,0.795-0.742,1.691-0.742,2.5v18.909
			c0,1.621,1.138,3.592,2.542,4.402l2.07,1.195c0.167,0.097,0.348,0.18,0.538,0.253c0.069,0.027,0.144,0.046,0.216,0.07
			c0.122,0.04,0.244,0.081,0.371,0.113c0.098,0.024,0.198,0.041,0.299,0.06c0.105,0.02,0.21,0.04,0.318,0.054
			c0.121,0.016,0.242,0.025,0.364,0.033c0.087,0.006,0.174,0.012,0.261,0.014c0.141,0.004,0.28,0.002,0.421-0.004
			c0.066-0.003,0.131-0.006,0.197-0.011c0.157-0.011,0.312-0.028,0.466-0.051c0.044-0.007,0.086-0.014,0.129-0.022
			c0.169-0.029,0.334-0.065,0.496-0.109c0.022-0.006,0.043-0.014,0.065-0.02c0.338-0.097,0.661-0.218,0.943-0.381l16.375-9.454
			c1.404-0.811,2.542-2.781,2.542-4.402L213.605,146.313z"/>
		<path id="XMLID_1088_" style="opacity:0.4;fill:#FFFFFF;" d="M213.57,145.883c-0.182-1.302-1.236-1.775-2.505-1.037l-16.38,9.454
			c-0.705,0.406-1.335,1.103-1.791,1.899l-7.157-4.13c0.464-0.796,1.095-1.493,1.8-1.899l16.371-9.455
			c1.41-0.813,3.682-0.813,5.084,0l2.073,1.194C212.343,142.649,213.404,144.357,213.57,145.883z"/>
		<path id="XMLID_1089_" style="fill:#FFFFFF;" d="M198.145,156.88l0.001,11.727c-0.225,0.037-0.785,0.306-1.037,0.451
			c-1.187,0.685-2.148,2.351-2.148,3.721c0.001,1.37,0.963,1.925,2.149,1.24c1.186-0.685,2.609-2.633,2.608-4.003V159.27
			l6.889-3.932v8.419c-0.225,0.037-0.785,0.306-1.038,0.452c-1.187,0.685-1.754,2.106-1.753,3.475c0,1.37,0.962,1.925,2.149,1.24
			c1.186-0.685,2.147-2.349,2.148-3.719l0.001-0.001v-14.056L198.145,156.88z"/>
		<path id="XMLID_1086_" style="opacity:0.1;" d="M194.23,179.289c-0.05,0.025-0.1,0.042-0.158,0.058
			c-0.124,0.042-0.249,0.083-0.373,0.116c-0.315,0.1-0.655,0.166-0.995,0.199c-0.008-0.008-0.025,0-0.05,0
			c-0.166,0.017-0.332,0.025-0.506,0.025c-0.921,0-1.841-0.199-2.546-0.605l-2.065-1.194c-1.402-0.813-2.546-2.787-2.546-4.404
			v-18.909c0-0.506,0.116-1.045,0.307-1.576c0.083-0.216,0.174-0.423,0.274-0.622c0.058-0.108,0.108-0.207,0.166-0.307l7.157,4.13
			c-0.464,0.796-0.746,1.692-0.746,2.505v18.909c0,1.227,0.655,1.899,1.584,1.8c0.058-0.008,0.108-0.016,0.158-0.025
			C194.006,179.364,194.114,179.33,194.23,179.289z"/>
	</g>
	<g id="Image">
		<path id="XMLID_1078_" style="fill:#27DEBF;" d="M213.605,186.233c0-1.621-1.138-3.592-2.542-4.402l-2.069-1.195
			c-1.404-0.811-3.68-0.811-5.083,0l-16.375,9.454c-0.703,0.406-1.339,1.104-1.8,1.902c-0.458,0.795-0.742,1.691-0.742,2.5v18.909
			c0,1.621,1.138,3.592,2.542,4.402l2.07,1.195c0.167,0.097,0.348,0.18,0.538,0.253c0.069,0.027,0.144,0.046,0.216,0.07
			c0.122,0.04,0.244,0.081,0.371,0.113c0.098,0.024,0.198,0.041,0.299,0.06c0.105,0.02,0.21,0.04,0.318,0.054
			c0.121,0.016,0.242,0.025,0.364,0.033c0.087,0.006,0.174,0.012,0.261,0.014c0.141,0.004,0.28,0.002,0.421-0.004
			c0.066-0.003,0.131-0.006,0.197-0.011c0.157-0.011,0.312-0.028,0.466-0.051c0.044-0.007,0.086-0.014,0.129-0.022
			c0.169-0.03,0.334-0.065,0.496-0.109c0.022-0.006,0.043-0.013,0.065-0.02c0.338-0.097,0.661-0.218,0.943-0.381l16.375-9.454
			c1.404-0.811,2.542-2.781,2.542-4.402L213.605,186.233z"/>
		<path id="XMLID_1077_" style="opacity:0.4;fill:#FFFFFF;" d="M213.57,185.805c-0.182-1.302-1.236-1.775-2.505-1.037l-16.38,9.454
			c-0.705,0.406-1.335,1.103-1.791,1.899l-7.157-4.13c0.464-0.796,1.095-1.493,1.8-1.899l16.371-9.454
			c1.41-0.813,3.682-0.813,5.084,0l2.073,1.194C212.343,182.57,213.404,184.278,213.57,185.805z"/>
		<path id="XMLID_1076_" style="fill:#27DEBF;" d="M213.606,186.223v18.907c0,1.626-1.135,3.592-2.543,4.405l-16.373,9.453
			c-0.189,0.104-0.397,0.199-0.615,0.265h-0.009c-0.057,0.019-0.113,0.038-0.17,0.047c-0.057,0.01-0.104,0.019-0.161,0.019
			c-0.926,0.104-1.588-0.567-1.588-1.796v-18.907c0-0.813,0.284-1.711,0.747-2.505c0.463-0.794,1.087-1.493,1.796-1.9l16.373-9.453
			c1.276-0.737,2.326-0.265,2.505,1.04c-0.013-0.132-0.036-0.266-0.064-0.401C213.564,185.677,213.606,185.956,213.606,186.223z"/>
		<g id="XMLID_1047_">
			<path id="XMLID_1072_" style="fill:#FFFFFF;" d="M195.196,197.436v17.736l15.361-8.868v-17.737L195.196,197.436z
				 M209.611,205.759l-13.47,7.776v-15.553l13.47-7.777V205.759z"/>
			<polygon id="XMLID_1049_" style="fill:#FFFFFF;" points="196.141,213.535 196.141,209.031 200.902,201.493 205.849,204.853 
				204.356,203.196 206.259,200.688 209.611,202.636 209.611,205.759 			"/>
			<path id="XMLID_1048_" style="fill:#FFFFFF;" d="M206.392,194.988c0.602-0.348,1.091-0.066,1.091,0.63
				c0,0.696-0.488,1.541-1.091,1.889c-0.602,0.348-1.091,0.066-1.091-0.63C205.301,196.181,205.79,195.336,206.392,194.988z"/>
		</g>
		<path id="XMLID_1046_" style="opacity:0.1;" d="M194.23,219.209c-0.05,0.025-0.1,0.042-0.158,0.058
			c-0.124,0.042-0.249,0.083-0.373,0.116c-0.315,0.1-0.655,0.166-0.995,0.199c-0.008-0.008-0.025,0-0.05,0
			c-0.166,0.017-0.332,0.025-0.506,0.025c-0.921,0-1.841-0.199-2.546-0.605l-2.065-1.194c-1.402-0.813-2.546-2.787-2.546-4.404
			v-18.909c0-0.506,0.116-1.045,0.307-1.576c0.083-0.216,0.174-0.423,0.274-0.622c0.058-0.108,0.108-0.207,0.166-0.307l7.157,4.13
			c-0.464,0.796-0.746,1.692-0.746,2.505v18.909c0,1.228,0.655,1.899,1.584,1.8c0.058-0.008,0.108-0.017,0.158-0.025
			C194.006,219.283,194.114,219.25,194.23,219.209z"/>
	</g>
	<g id="Contacts">
		<path id="XMLID_1044_" style="fill:#27DEBF;" d="M213.605,266.069c0-1.621-1.138-3.592-2.542-4.402l-2.069-1.195
			c-1.404-0.811-3.68-0.811-5.083,0l-16.375,9.454c-0.703,0.406-1.339,1.104-1.8,1.902c-0.458,0.795-0.742,1.691-0.742,2.5v18.909
			c0,1.621,1.138,3.592,2.542,4.402l2.07,1.195c0.167,0.097,0.348,0.18,0.538,0.253c0.069,0.027,0.144,0.046,0.216,0.07
			c0.122,0.04,0.244,0.081,0.371,0.113c0.098,0.024,0.198,0.041,0.299,0.06c0.105,0.02,0.21,0.04,0.318,0.054
			c0.121,0.016,0.242,0.025,0.364,0.033c0.087,0.006,0.174,0.012,0.261,0.014c0.141,0.004,0.28,0.002,0.421-0.004
			c0.066-0.003,0.131-0.006,0.197-0.011c0.157-0.011,0.312-0.028,0.466-0.051c0.044-0.007,0.086-0.014,0.129-0.022
			c0.169-0.029,0.334-0.065,0.496-0.109c0.022-0.006,0.043-0.013,0.065-0.02c0.338-0.097,0.661-0.218,0.943-0.381l16.375-9.455
			c1.404-0.811,2.542-2.781,2.542-4.402L213.605,266.069z"/>
		<path id="XMLID_1043_" style="opacity:0.4;fill:#FFFFFF;" d="M213.57,265.64c-0.182-1.302-1.236-1.775-2.505-1.037l-16.38,9.454
			c-0.705,0.406-1.335,1.103-1.791,1.899l-7.157-4.13c0.464-0.796,1.095-1.493,1.8-1.899l16.371-9.454
			c1.41-0.813,3.682-0.813,5.084,0l2.073,1.194C212.343,262.406,213.404,264.114,213.57,265.64z"/>
		<path id="XMLID_1042_" style="fill:#27DEBF;" d="M213.606,266.059v18.907c0,1.626-1.135,3.592-2.543,4.405l-16.373,9.453
			c-0.189,0.104-0.397,0.199-0.615,0.265h-0.009c-0.057,0.019-0.113,0.038-0.17,0.047c-0.057,0.009-0.104,0.019-0.161,0.019
			c-0.926,0.104-1.588-0.567-1.588-1.796v-18.907c0-0.813,0.284-1.711,0.747-2.505c0.463-0.794,1.087-1.494,1.796-1.9l16.373-9.453
			c1.276-0.737,2.326-0.265,2.505,1.04c-0.013-0.132-0.036-0.266-0.064-0.401C213.564,265.513,213.606,265.792,213.606,266.059z"/>
		<g id="XMLID_1039_">
			<path id="XMLID_1041_" style="fill:#FFFFFF;" d="M202.712,272.634c2.04-1.178,3.693-0.223,3.693,2.132
				c0,2.355-1.654,5.22-3.693,6.397c-2.04,1.178-3.693,0.223-3.693-2.132S200.673,273.812,202.712,272.634z"/>
			<path id="XMLID_1040_" style="fill:#FFFFFF;" d="M209.991,285.231c0-3.87-2.717-5.588-6.068-3.653l-2.095,1.209
				c-3.351,1.935-6.068,6.64-6.068,10.51v1.041l14.23-8.21V285.231z"/>
		</g>
		<path id="XMLID_1038_" style="opacity:0.1;" d="M194.23,299.044c-0.05,0.025-0.1,0.042-0.158,0.058
			c-0.124,0.042-0.249,0.083-0.373,0.116c-0.315,0.1-0.655,0.166-0.995,0.199c-0.008-0.008-0.025,0-0.05,0
			c-0.166,0.017-0.332,0.025-0.506,0.025c-0.921,0-1.841-0.199-2.546-0.605l-2.065-1.194c-1.402-0.813-2.546-2.787-2.546-4.404
			V274.33c0-0.506,0.116-1.045,0.307-1.576c0.083-0.216,0.174-0.423,0.274-0.622c0.058-0.108,0.108-0.207,0.166-0.307l7.157,4.13
			c-0.464,0.796-0.746,1.692-0.746,2.505v18.909c0,1.227,0.655,1.899,1.584,1.8c0.058-0.008,0.108-0.016,0.158-0.025
			C194.006,299.119,194.114,299.086,194.23,299.044z"/>
	</g>
</g>
<g id="Character">
	<g id="Character_5_">
		<g id="XMLID_1758_">
			<path id="XMLID_1759_" style="fill:#263238;" d="M412.938,182.951h1.297c10.303,0,18.655-8.352,18.655-18.654l0,0
				c0-10.661-8.642-19.303-19.303-19.303l0,0c-9.888,0-17.905,8.016-17.905,17.904v2.797
				C395.682,175.225,403.408,182.951,412.938,182.951z"/>
			<path id="XMLID_801_" style="fill:#263238;" d="M444.889,196.4L444.889,196.4c-7.856,0-14.224-6.368-14.224-14.224v-17.645l0,0
				c7.856,0,14.224,6.368,14.224,14.224V196.4z"/>
		</g>
		<g id="XMLID_636_">
			<path id="XMLID_1296_" style="fill:#FFA8A7;" d="M381.187,236.706c-1.113,2.278-4.476,5.581-8.423,1.317
				c-5.77-6.233-15.273-28.373-15.273-28.373l6.247-2.894l12.733,17.392L381.187,236.706"/>
			<path id="XMLID_1295_" style="fill:#FFA8A7;" d="M392.325,197.975c-4.942,7.546-17.615,30.367-17.615,30.367l5.153,10.223
				c0,0,6.156-8.356,9.397-12.943c3.746-5.302,10.108-15.502,10.108-15.502s-0.748-15.225,2.396-17.885
				c3.145-2.66,5.774-3.46,5.774-3.46C402.546,188.958,397.585,189.944,392.325,197.975z"/>
			<g id="XMLID_623_">
				<path id="XMLID_1294_" style="fill:#263238;" d="M368.784,195.646c-1.66-3.09-2.071-3.225-3.058-3.903
					c-0.987-0.678-7.042-1.582-9.555-1.793c-2.957-0.249-4.006,0.294-3.184,2.837c1.759,5.441,7.094,16.994,8.289,18.588
					c0.784,1.045,0.944,2.016,4.267,2.34c3.105,0.303,6.999,0.473,8.146,0.542c1.147,0.069,2.732,0.354,1.704-3.019
					c-1.028-3.373-3.452-8.849-4.539-11.206C369.577,197.258,368.784,195.646,368.784,195.646z"/>
				<path id="XMLID_1293_" style="fill:#FFA8A7;" d="M357.491,209.651c-1.24-5.458-4.868-10.499-2.819-12.346l1.102,2.415
					c0,0,6.795,1.63,10.077,1.379c3.282-0.251,5.965-1.029,6.863-0.397c1.905,1.342,2.451,7.061-3.004,9.137
					C365.07,211.605,357.491,209.651,357.491,209.651z"/>
			</g>
		</g>
		<g id="XMLID_1707_">
			<path id="XMLID_1757_" style="fill:#263238;" d="M426.067,375.089v-1.241c-0.489,1.456-2.76,7.722-6.203,10.863
				c-2.737,2.497-6.471,5.381-7.421,8.164c-0.988,2.895,5.196,3.868,7.754,3.415c2.971-0.526,6.816-2.212,8.908-4.783
				c1.471-1.808,2.408-3.95,3.459-5.372c1.051-1.421,3.472-3.008,4.04-4.654c0.312-0.904-0.059-2.883-0.497-4.556
				c-0.402-1.534-0.838-3.221-1.362-3.078c-0.001,0.187,0,0.946,0,0.946c-0.63,0.698-2.373,1.391-4.339,1.467
				C429.137,376.31,426.057,376.058,426.067,375.089z"/>
			<path id="XMLID_1756_" style="fill:#FFA8A7;" d="M417.387,386.907c0.849-0.758,1.703-1.498,2.478-2.205
				c2.406-2.195,4.239-5.916,5.292-8.455c0.601-1.449,0.91-2.997,0.91-4.567v-4.946h8.678v8.051v0v0.001v0.215l-0.044,0.022
				c-0.418,1.803-4.4,6.6-6.663,9.728c-1.516,2.097-4.398,4.764-7.842,5.224C416.934,390.411,415.266,389.382,417.387,386.907z"/>
			<path id="XMLID_1755_" style="fill:#263238;" d="M392.218,366.535v-1.241c-0.489,1.456-2.76,7.722-6.203,10.863
				c-2.737,2.497-6.471,5.38-7.421,8.164c-0.988,2.895,5.196,3.868,7.754,3.415c2.972-0.526,6.816-2.212,8.908-4.783
				c1.471-1.807,2.408-3.95,3.459-5.372c1.05-1.421,3.472-3.008,4.04-4.654c0.312-0.904-0.058-2.883-0.497-4.556
				c-0.402-1.534-0.838-3.222-1.362-3.078c-0.001,0.187,0,0.946,0,0.946c-0.63,0.698-2.373,1.391-4.339,1.467
				C395.287,367.755,392.207,367.503,392.218,366.535z"/>
			<path id="XMLID_1710_" style="fill:#FFA8A7;" d="M383.537,378.353c0.849-0.758,1.703-1.498,2.478-2.205
				c2.406-2.195,4.239-5.916,5.292-8.455c0.601-1.45,0.91-2.997,0.91-4.567v-4.946h8.678v8.051v0v0.001v0.215l-0.044,0.022
				c-0.418,1.803-4.4,6.6-6.663,9.728c-1.516,2.097-4.398,4.764-7.842,5.224C383.084,381.857,381.417,380.827,383.537,378.353z"/>
			<path id="XMLID_1709_" style="fill:#27DEBF;" d="M433.018,240.223c6.728,14.694-0.243,66.456-0.243,66.456
				c0.202,2.385,2.929,7.077,3.944,17.571c1.2,12.4-1.883,43.536-1.883,43.536s-4.018,2.627-8.77,0.349
				c0,0-8.271-46.894-9.826-59.223c-1.357-10.76-3.962-34.419-3.962-34.419l-7.404,34.361c0,0,1.9,6.028,2.345,10.62
				c0.702,7.252-6.324,41.017-6.324,41.017s-2.994,1.099-8.678,0.261c0,0-2.485-44.808-3.141-53.544
				c-1.1-14.672,2.797-60.451,5.488-69.135L433.018,240.223z"/>
			<path id="XMLID_1708_" style="opacity:0.1;" d="M412.279,274.494l-2.184-13.648c0,0-9.241-1.914-13.431-5.854
				c0,0,4.397,5.469,10.927,7.26l2.453,10.508l-4.289,31.816L412.279,274.494z"/>
		</g>
		<g id="XMLID_1681_">
			<path id="XMLID_1705_" style="fill:#37474F;" d="M421.151,189.175L421.151,189.175c8.625,0.594,9.23,4.759,11.388,9.314
				c1.643,3.468,1.662,7.49,0.408,11.117l-6.011,17.388c0,0,2.814,6.802,6.081,13.23c-15.083,8.419-33.918,3.993-38.453-2.15
				c-0.192-1.303-1.666-29.033-0.545-33.438c2.08-8.177,10.157-16.143,13.731-15.853L421.151,189.175z"/>
			<g id="XMLID_1686_">
				<path id="XMLID_1703_" style="fill:#263238;" d="M434.843,161.233l-3.475,4.366c1.197,1.019,2.946,0.867,3.905-0.338
					C436.233,164.055,436.041,162.252,434.843,161.233z"/>
				<g id="XMLID_1701_">
					<path id="XMLID_1702_" style="fill:#FFA8A7;" d="M400.55,155.397c-0.957,0.5-3.538,5.415-3.289,16.166
						c0.211,9.111,3.164,11.362,4.647,12.011c1.483,0.649,4.343,0.254,7.123-0.209v5.468c0,0-3.843,4.463-3.601,6.971
						c0.242,2.507,5.548,3.1,9.145,0.65c3.596-2.449,5.901-6.178,5.901-6.178v-13.218c0,0,1.877,2.507,4.947,0.468
						c3.07-2.039,3.187-7.085,1.402-8.897c-1.785-1.812-5.632-1.238-6.349,1.265c0,0-4.505,0.796-10.546-3.092
						C403.41,162.603,401.401,159.262,400.55,155.397z"/>
				</g>
				<path id="XMLID_1694_" style="fill:#263238;" d="M399.061,165.583l2.545-1.215c-0.312-0.721-1.134-1.034-1.837-0.698
					C399.067,164.005,398.75,164.862,399.061,165.583z"/>
				<path id="XMLID_831_" style="fill:#263238;" d="M409.598,164.776l2.385,1.505c0.444-0.648,0.27-1.511-0.389-1.926
					C410.936,163.939,410.042,164.128,409.598,164.776z"/>
				<path id="XMLID_832_" style="fill:#263238;" d="M420.58,167.38l-0.157,5.577c-1.572,0.007-2.811-1.235-2.768-2.775
					C417.699,168.642,419.009,167.388,420.58,167.38z"/>
				<g id="XMLID_1699_">
					<path id="XMLID_1700_" style="fill:#263238;" d="M408.454,168.925c-0.033,0.657,0.453,1.213,1.085,1.243
						c0.632,0.03,1.171-0.478,1.204-1.135c0.033-0.656-0.453-1.213-1.085-1.243C409.026,167.761,408.487,168.268,408.454,168.925z"
						/>
				</g>
				<g id="XMLID_1695_">
					<path id="XMLID_1696_" style="fill:#F28F8F;" d="M407.128,176.997l-2.661,0.849c0.221,0.762,0.996,1.189,1.73,0.955
						C406.932,178.566,407.349,177.759,407.128,176.997z"/>
				</g>
				<g id="XMLID_1691_">
					<path id="XMLID_1692_" style="fill:#263238;" d="M399.594,168.445c-0.033,0.656,0.453,1.213,1.085,1.243
						c0.632,0.03,1.171-0.478,1.204-1.134c0.033-0.657-0.453-1.213-1.085-1.243C400.166,167.281,399.627,167.788,399.594,168.445z"
						/>
				</g>
				<g id="XMLID_1689_">
					<polygon id="XMLID_1690_" style="fill:#F28F8F;" points="405.19,167.789 405.008,174.686 401.378,173.562 					"/>
				</g>
				<g id="XMLID_1687_">
					<path id="XMLID_1688_" style="fill:#F28F8F;" d="M409.031,183.364c2.93-0.384,8.958-2.116,9.898-4.499
						c0,0-0.313,1.498-2.114,3.041c-1.801,1.544-7.784,3.282-7.784,3.282V183.364z"/>
				</g>
			</g>
			<path id="XMLID_1685_" style="fill:#263238;" d="M417.294,241.855c4.954-1.173,8.098-6.185,6.789-11.105
				c-0.05-0.187-0.101-0.347-0.154-0.474c-0.97-2.332-3.055-2.025-3.055-2.025l0,0c1.955-1.296,3.312-3.319,3.77-5.62l1.834-10.898
				c0,0,0.408-2.409-0.466-5.286l6.063-7.012c0,0,0.435,0.303,1.12,0.779c0.945,3.037,0.803,6.352-0.248,9.393l-6.011,17.388
				c0,0,2.814,6.802,6.081,13.23c-11.116,6.204-24.263,5.429-32.229,2.135C407.082,243.335,412.912,242.892,417.294,241.855z"/>
			<g id="XMLID_1682_">
				<path id="XMLID_1684_" style="fill:#FFA8A7;" d="M448.456,232.458c-7.831-32.01-13.622-42.686-23.135-42.562
					c-2.776,3.32-2.01,13.347,2.379,19.432c0,0,9.785,20.645,11.347,27.984c1.372,6.448,2.926,14.56,2.827,20.102
					c-0.017,0.982-0.422,1.915-1.088,2.637c-1.787,1.936-1.794,3.496-2.952,5.639c-0.907,1.677-1.898,2.304-1.615,2.681
					c0.363,0.485,1.511,1.117,2.938,0.217c0.718-0.453,1.184-0.985,2.226-2.136c0,0-0.284,2.597-1.766,5.939
					c-2.008,4.529-1.519,6.84,4.594,5.227c3.831-1.011,6.236-4.202,6.81-13.409c0.165-2.653,0.415-6.837,0.101-10.191
					C450.306,245.285,449.717,237.61,448.456,232.458z"/>
			</g>
		</g>
	</g>
</g>
</svg>
